<svg width="20" height="20" viewBox="0 0 20 20" fill="none" xmlns="http://www.w3.org/2000/svg">
<path d="M10.8332 7.49935C10.8332 7.03911 10.4601 6.66602 9.99984 6.66602C9.5396 6.66602 9.1665 7.03911 9.1665 7.49935V9.16602H7.49984C7.0396 9.16602 6.6665 9.53911 6.6665 9.99935C6.6665 10.4596 7.0396 10.8327 7.49984 10.8327H9.1665V12.4993C9.1665 12.9596 9.5396 13.3327 9.99984 13.3327C10.4601 13.3327 10.8332 12.9596 10.8332 12.4993V10.8327H12.4998C12.9601 10.8327 13.3332 10.4596 13.3332 9.99935C13.3332 9.53911 12.9601 9.16602 12.4998 9.16602H10.8332V7.49935Z" fill="white"/>
<path fill-rule="evenodd" clip-rule="evenodd" d="M9.99984 1.66602C5.39746 1.66602 1.6665 5.39698 1.6665 9.99935C1.6665 14.6017 5.39746 18.3327 9.99984 18.3327C14.6022 18.3327 18.3332 14.6017 18.3332 9.99935C18.3332 5.39698 14.6022 1.66602 9.99984 1.66602ZM3.33317 9.99935C3.33317 6.31745 6.31794 3.33268 9.99984 3.33268C13.6817 3.33268 16.6665 6.31745 16.6665 9.99935C16.6665 13.6812 13.6817 16.666 9.99984 16.666C6.31794 16.666 3.33317 13.6812 3.33317 9.99935Z" fill="white"/>
</svg>
