
<svg width="28" height="28" viewBox="0 0 28 28" fill="none" xmlns="http://www.w3.org/2000/svg">
<path d="M15.1669 3.50065C15.1669 2.85632 14.6446 2.33398 14.0002 2.33398C13.3559 2.33398 12.8336 2.85632 12.8336 3.50065V5.25065C12.8336 5.28301 12.8349 5.31506 12.8375 5.34675C9.52488 5.90035 7.00023 8.77951 7.00023 12.2494V16.9173C7.00023 17.5009 6.52177 18.5128 5.99817 19.4456C5.26139 20.7581 5.39633 22.3404 6.80295 22.876C8.21768 23.4147 10.4807 23.9173 14.0002 23.9173C17.5198 23.9173 19.7828 23.4147 21.1975 22.876C22.6041 22.3404 22.7391 20.7581 22.0023 19.4456C21.4787 18.5128 21.0002 17.5009 21.0002 16.9173V12.2499C21.0002 8.78007 18.4756 5.90046 15.163 5.34676C15.1656 5.31507 15.1669 5.28301 15.1669 5.25065V3.50065Z" fill="#667185"/>
<path d="M10.407 24.8793C10.4506 24.9173 10.5032 24.9617 10.5644 25.0107C10.7397 25.1509 10.9903 25.3327 11.3068 25.5137C11.9352 25.8727 12.8642 26.2507 14.0003 26.2507C15.1363 26.2507 16.0653 25.8727 16.6937 25.5137C17.0103 25.3327 17.2608 25.1509 17.4361 25.0107C17.4973 24.9617 17.5499 24.9173 17.5935 24.8793C16.5734 25.0064 15.3839 25.084 14.0003 25.084C12.6166 25.084 11.4271 25.0064 10.407 24.8793Z" fill="#667185"/>
</svg>
