<svg width="16" height="16" viewBox="0 0 16 16" fill="none" xmlns="http://www.w3.org/2000/svg">
<path d="M3.99967 6.66732C3.99967 6.29913 4.29815 6.00065 4.66634 6.00065H7.99967C8.36786 6.00065 8.66634 6.29913 8.66634 6.66732C8.66634 7.03551 8.36786 7.33398 7.99967 7.33398H4.66634C4.29815 7.33398 3.99967 7.03551 3.99967 6.66732Z" fill="#003B99"/>
<path d="M4.66634 8.66732C4.29815 8.66732 3.99967 8.96579 3.99967 9.33398C3.99967 9.70218 4.29815 10.0007 4.66634 10.0007H10.6663C11.0345 10.0007 11.333 9.70218 11.333 9.33398C11.333 8.96579 11.0345 8.66732 10.6663 8.66732H4.66634Z" fill="#003B99"/>
<path fill-rule="evenodd" clip-rule="evenodd" d="M1.33301 8.00065C1.33301 4.31875 4.31778 1.33398 7.99967 1.33398C11.6816 1.33398 14.6663 4.31875 14.6663 8.00065C14.6663 11.6825 11.6816 14.6673 7.99967 14.6673C7.44479 14.6673 6.90486 14.5994 6.38813 14.4711L2.69219 14.0091C1.89334 13.9092 1.33816 13.1646 1.47051 12.3704L1.69911 10.9989C1.70043 10.9909 1.70059 10.9829 1.6996 10.9749L1.52926 9.61219C1.40094 9.09546 1.33301 8.55553 1.33301 8.00065ZM7.99967 2.66732C5.05416 2.66732 2.66634 5.05513 2.66634 8.00065C2.66634 8.45835 2.72384 8.90166 2.83168 9.32416L2.84204 9.36476L3.02263 10.8095C3.03962 10.9454 3.03681 11.083 3.0143 11.2181L2.7857 12.5896C2.77792 12.6364 2.81058 12.6802 2.85757 12.686L6.63557 13.1583L6.67617 13.1686C7.09867 13.2765 7.54198 13.334 7.99967 13.334C10.9452 13.334 13.333 10.9462 13.333 8.00065C13.333 5.05513 10.9452 2.66732 7.99967 2.66732Z" fill="#003B99"/>
</svg>
