<svg width="17" height="17" viewBox="0 0 17 17" fill="none" xmlns="http://www.w3.org/2000/svg">
<path d="M14.9673 5.28079L12.1741 2.48829C12.0813 2.3954 11.971 2.32172 11.8497 2.27145C11.7284 2.22119 11.5983 2.19531 11.467 2.19531C11.3356 2.19531 11.2056 2.22119 11.0842 2.27145C10.9629 2.32172 10.8526 2.3954 10.7598 2.48829L3.0529 10.1952C2.95963 10.2877 2.88569 10.3978 2.83537 10.5192C2.78505 10.6405 2.75935 10.7707 2.75977 10.902V13.6952C2.75977 13.9604 2.86513 14.2147 3.05266 14.4023C3.2402 14.5898 3.49455 14.6952 3.75977 14.6952H14.2598C14.3924 14.6952 14.5196 14.6425 14.6133 14.5487C14.7071 14.4549 14.7598 14.3278 14.7598 14.1952C14.7598 14.0626 14.7071 13.9354 14.6133 13.8416C14.5196 13.7478 14.3924 13.6952 14.2598 13.6952H7.96727L14.9673 6.69516C15.0602 6.6023 15.1338 6.49205 15.1841 6.37071C15.2344 6.24937 15.2602 6.11932 15.2602 5.98797C15.2602 5.85663 15.2344 5.72658 15.1841 5.60524C15.1338 5.4839 15.0602 5.37365 14.9673 5.28079ZM6.5529 13.6952H3.75977V10.902L9.25977 5.40204L12.0529 8.19516L6.5529 13.6952ZM12.7598 7.48829L9.96727 4.69516L11.4673 3.19516L14.2598 5.98829L12.7598 7.48829Z" fill="#525965"/>
</svg>
