<svg width="20" height="20" viewBox="0 0 20 20" fill="none" xmlns="http://www.w3.org/2000/svg">
<path fill-rule="evenodd" clip-rule="evenodd" d="M11.4149 1.75347L10.4163 2.66121L9.41783 1.75347C7.85578 0.333423 5.67216 1.6091 5.60866 3.33288H3.33301C1.9523 3.33288 0.833008 4.45217 0.833008 5.83288V7.40696C0.833008 8.07706 1.20766 8.65966 1.75893 8.95671V15.8329C1.75893 17.6738 3.25132 19.1662 5.09227 19.1662H14.9071C16.748 19.1662 18.2404 17.6738 18.2404 15.8329V8.95671C18.7917 8.65966 19.1663 8.07706 19.1663 7.40696V5.83288C19.1663 4.45217 18.0471 3.33288 16.6663 3.33288H15.224C15.1605 1.6091 12.9769 0.333423 11.4149 1.75347ZM6.68161 4.99955C6.67195 4.99972 6.66229 4.99972 6.65264 4.99955H3.33301C2.87277 4.99955 2.49967 5.37264 2.49967 5.83288V7.40696C2.49967 7.45809 2.54113 7.49955 2.59227 7.49955H17.4071C17.4582 7.49955 17.4997 7.45809 17.4997 7.40696V5.83288C17.4997 5.37264 17.1266 4.99955 16.6663 4.99955H14.18C14.1704 4.99972 14.1607 4.99972 14.1511 4.99955H6.68161ZM11.2497 9.16621H8.74967V11.4059C8.74967 11.4345 8.75663 11.448 8.76191 11.456C8.76917 11.467 8.78246 11.48 8.8023 11.4895C8.82214 11.4991 8.84057 11.5013 8.85371 11.5001C8.86325 11.4993 8.87814 11.4963 8.90052 11.4784C9.54312 10.9643 10.4562 10.9643 11.0988 11.4784C11.1212 11.4963 11.1361 11.4993 11.1456 11.5001C11.1588 11.5013 11.1772 11.4991 11.197 11.4895C11.2169 11.48 11.2302 11.467 11.2374 11.456C11.2427 11.448 11.2497 11.4345 11.2497 11.4059V9.16621ZM7.08301 9.16621V11.4059C7.08301 12.8812 8.78961 13.7015 9.94167 12.7798C9.97558 12.7527 10.0238 12.7527 10.0577 12.7798C11.2097 13.7015 12.9163 12.8812 12.9163 11.4059V9.16621H16.5737V15.8329C16.5737 16.7534 15.8276 17.4995 14.9071 17.4995H5.09227C4.17179 17.4995 3.4256 16.7534 3.4256 15.8329V9.16621H7.08301ZM8.29671 2.9867L8.6775 3.33288H7.29751C7.36756 2.91492 7.90579 2.63133 8.29671 2.9867ZM13.5352 3.33288C13.4651 2.91492 12.9269 2.63133 12.536 2.9867L12.1552 3.33288H13.5352Z" fill="#667185"/>
</svg>
