<svg width="16" height="16" viewBox="0 0 16 16" fill="none" xmlns="http://www.w3.org/2000/svg">
<path d="M8.00016 5.66732C8.00016 5.29913 7.70169 5.00065 7.3335 5.00065C6.96531 5.00065 6.66683 5.29913 6.66683 5.66732V9.00065C6.66683 9.36884 6.96531 9.66732 7.3335 9.66732H9.3335C9.70169 9.66732 10.0002 9.36884 10.0002 9.00065C10.0002 8.63246 9.70169 8.33398 9.3335 8.33398H8.00016V5.66732Z" fill="#98A2B3"/>
<path fill-rule="evenodd" clip-rule="evenodd" d="M8.00016 1.33398C4.31826 1.33398 1.3335 4.31875 1.3335 8.00065C1.3335 11.6825 4.31826 14.6673 8.00016 14.6673C11.6821 14.6673 14.6668 11.6825 14.6668 8.00065C14.6668 4.31875 11.6821 1.33398 8.00016 1.33398ZM2.66683 8.00065C2.66683 5.05513 5.05464 2.66732 8.00016 2.66732C10.9457 2.66732 13.3335 5.05513 13.3335 8.00065C13.3335 10.9462 10.9457 13.334 8.00016 13.334C5.05464 13.334 2.66683 10.9462 2.66683 8.00065Z" fill="#98A2B3"/>
</svg>
