<svg width="17" height="17" viewBox="0 0 17 17" fill="none" xmlns="http://www.w3.org/2000/svg">
<path d="M14.2598 3.69531H11.7598V3.19531C11.7598 2.79749 11.6017 2.41596 11.3204 2.13465C11.0391 1.85335 10.6576 1.69531 10.2598 1.69531H7.25977C6.86194 1.69531 6.48041 1.85335 6.19911 2.13465C5.9178 2.41596 5.75977 2.79749 5.75977 3.19531V3.69531H3.25977C3.12716 3.69531 2.99998 3.74799 2.90621 3.84176C2.81244 3.93553 2.75977 4.0627 2.75977 4.19531C2.75977 4.32792 2.81244 4.4551 2.90621 4.54887C2.99998 4.64263 3.12716 4.69531 3.25977 4.69531H3.75977V13.6953C3.75977 13.9605 3.86512 14.2149 4.05266 14.4024C4.2402 14.59 4.49455 14.6953 4.75977 14.6953H12.7598C13.025 14.6953 13.2793 14.59 13.4669 14.4024C13.6544 14.2149 13.7598 13.9605 13.7598 13.6953V4.69531H14.2598C14.3924 4.69531 14.5196 4.64263 14.6133 4.54887C14.7071 4.4551 14.7598 4.32792 14.7598 4.19531C14.7598 4.0627 14.7071 3.93553 14.6133 3.84176C14.5196 3.74799 14.3924 3.69531 14.2598 3.69531ZM6.75977 3.19531C6.75977 3.0627 6.81244 2.93553 6.90621 2.84176C6.99998 2.74799 7.12716 2.69531 7.25977 2.69531H10.2598C10.3924 2.69531 10.5196 2.74799 10.6133 2.84176C10.7071 2.93553 10.7598 3.0627 10.7598 3.19531V3.69531H6.75977V3.19531ZM12.7598 13.6953H4.75977V4.69531H12.7598V13.6953ZM7.75977 7.19531V11.1953C7.75977 11.3279 7.70709 11.4551 7.61332 11.5489C7.51955 11.6426 7.39237 11.6953 7.25977 11.6953C7.12716 11.6953 6.99998 11.6426 6.90621 11.5489C6.81244 11.4551 6.75977 11.3279 6.75977 11.1953V7.19531C6.75977 7.0627 6.81244 6.93553 6.90621 6.84176C6.99998 6.74799 7.12716 6.69531 7.25977 6.69531C7.39237 6.69531 7.51955 6.74799 7.61332 6.84176C7.70709 6.93553 7.75977 7.0627 7.75977 7.19531ZM10.7598 7.19531V11.1953C10.7598 11.3279 10.7071 11.4551 10.6133 11.5489C10.5196 11.6426 10.3924 11.6953 10.2598 11.6953C10.1272 11.6953 9.99998 11.6426 9.90621 11.5489C9.81244 11.4551 9.75977 11.3279 9.75977 11.1953V7.19531C9.75977 7.0627 9.81244 6.93553 9.90621 6.84176C9.99998 6.74799 10.1272 6.69531 10.2598 6.69531C10.3924 6.69531 10.5196 6.74799 10.6133 6.84176C10.7071 6.93553 10.7598 7.0627 10.7598 7.19531Z" fill="#525965"/>
</svg>
