<svg width="20" height="20" viewBox="0 0 20 20" fill="none" xmlns="http://www.w3.org/2000/svg">
<path d="M5.00033 7.08301C5.00033 6.62277 5.37342 6.24967 5.83366 6.24967H10.0003C10.4606 6.24967 10.8337 6.62277 10.8337 7.08301C10.8337 7.54324 10.4606 7.91634 10.0003 7.91634H5.83366C5.37342 7.91634 5.00033 7.54324 5.00033 7.08301Z" fill="#003B99"/>
<path d="M5.83366 9.58301C5.37342 9.58301 5.00033 9.9561 5.00033 10.4163C5.00033 10.8766 5.37342 11.2497 5.83366 11.2497H13.3337C13.7939 11.2497 14.167 10.8766 14.167 10.4163C14.167 9.9561 13.7939 9.58301 13.3337 9.58301H5.83366Z" fill="#003B99"/>
<path fill-rule="evenodd" clip-rule="evenodd" d="M12.8337 16.6247L14.0003 15.7497C14.2888 15.5333 14.6397 15.4163 15.0003 15.4163C16.8413 15.4163 18.3337 13.924 18.3337 12.083V5.41634C18.3337 3.57539 16.8413 2.08301 15.0003 2.08301H5.00033C3.15938 2.08301 1.66699 3.57539 1.66699 5.41634V12.083C1.66699 13.924 3.15938 15.4163 5.00033 15.4163H6.66699C7.02761 15.4163 7.3785 15.5333 7.66699 15.7497L8.83366 16.6247C10.0188 17.5136 11.6485 17.5136 12.8337 16.6247ZM15.0003 13.7497C14.2791 13.7497 13.5773 13.9836 13.0003 14.4163L11.8337 15.2913C11.2411 15.7358 10.4263 15.7358 9.83366 15.2913L8.66699 14.4163C8.09001 13.9836 7.38823 13.7497 6.66699 13.7497H5.00033C4.07985 13.7497 3.33366 13.0035 3.33366 12.083V5.41634C3.33366 4.49587 4.07985 3.74967 5.00033 3.74967H15.0003C15.9208 3.74967 16.667 4.49587 16.667 5.41634V12.083C16.667 13.0035 15.9208 13.7497 15.0003 13.7497Z" fill="#003B99"/>
</svg>
